         The Scorpion King(2002)1080p BDRip[Hindi-Eng-Tamil]AC3-DGrea8


Summary:-



In an ancient time, predating the pyramids, the evil king Memnon is using the psychic powers of his sorceress Cassandra to fortell his great victories. In a last ditch effort to stop Memnon from taking over the world, the leaders of the remaining free tribes hire the assassin Mathayus to kill the sorceress. But Mathayus ends up getting much more than he bargained for. Now with the help of the trickster Arpid, tribal leader Balthazar and an unexpected ally, it's up to Mathayus to fufill his destiny and become the great Scorpion King


Cast:-



Dwayne Johnson...........Mathayus (as The Rock)
Steven Brand.............Memnon
Michael Clarke Duncan....Balthazar
Kelly Hu.................The Sorceress
Bernard Hill.............Philos
Grant Heslov.............Arpid
Peter Facinelli..........Takmet
Ralf Moeller.............Thorak
Branscombe Richmond......Jesup
Roger Rees...............King Pheron
Sherri Howard............Queen Isis
Conrad Roberts...........Chieftain
Joseph Ruskin............Tribal Leader
Esteban Cueto............Third Akkadian
Nils Allen Stewart.......Torturer



Video & Audio Info.:-

Director: Chuck Russell
Writers: Stephen Sommers (story), Jonathan Hales (story)
Stars: Dwayne Johnson, Steven Brand, Michael Clarke Duncan
Release Date: 19 April 2002 (USA)
Filming Locations: Anza-Borrego Desert State Park - 200 Palm Canyon Drive, Borrego Springs, California,
Genres: Action | Adventure | Fantasy | Thriller

Box Office
Budget: $60,000,000 (estimated)
Opening Weekend: $880,633 (France) (10 May 2002)
Gross: $90,341,670 (USA) (21 June 2002)


Video
ID : 1
Format : AVC
Format/Info : Advanced Video Codec
Format settings, CABAC : Yes
Format settings, ReFrames : 4 frames
Muxing mode : Header stripping
Codec ID : V_MPEG4/ISO/AVC
Duration : 1h 27mn
Bit rate : 3 126 Kbps
Width : 1 920 pixels
Height : 800 pixels
Display aspect ratio : 2.40:1
Frame rate mode : Variable
Frame rate : 25.000 fps
Color space : YUV
Chroma subsampling : 4:2:0
Bit depth : 8 bits
Scan type : Progressive
Bits/(Pixel*Frame) : 0.081
Stream size : 1.91 GiB (77%)


Audio #1
ID : 2
Format : AC-3
Format/Info : Audio Coding 3
Mode extension : CM (complete main)
Muxing mode : Header stripping
Codec ID : A_AC3
Duration : 1h 27mn
Bit rate mode : Constant
Bit rate : 640 Kbps
Channel(s) : 6 channels
Channel positions : Front: L C R, Side: L R, LFE
Sampling rate : 48.0 KHz
Bit depth : 16 bits
Compression mode : Lossy
Stream size : 400 MiB (16%)
Title : English(640kbps )
Language : English

Audio #2
ID : 3
Format : AC-3
Format/Info : Audio Coding 3
Mode extension : CM (complete main)
Muxing mode : Header stripping
Codec ID : A_AC3
Duration : 1h 27mn
Bit rate mode : Constant
Bit rate : 192 Kbps
Channel(s) : 2 channels
Channel positions : Front: L R
Sampling rate : 48.0 KHz
Bit depth : 16 bits
Compression mode : Lossy
Delay relative to video : 2s 0ms
Stream size : 120 MiB (5%)
Title : 2Ch.Ac3(Org.DVD Audio)
Language : Hindi

Audio
ID : 1
Format : AC-3
Format/Info : Audio Coding 3
Mode extension : CM (complete main)
Muxing mode : Header stripping
Codec ID : A_AC3
Duration : 1h 27mn
Bit rate mode : Constant
Bit rate : 192 Kbps
Channel(s) : 2 channels
Channel positions : Front: L R
Sampling rate : 48.0 KHz
Bit depth : 16 bits
Compression mode : Lossy
Stream size : 120 MiB
Title : 2Ch.Ac3(Org.DVD Audio)
Language : Tamil

Subtitle Languages : English



Screen Shoots:-

       
http://www.shotpix.com/images/38583201599426543366.jpg
 
http://www.shotpix.com/images/50450258007365606070.jpg
 
http://www.shotpix.com/images/75748082941791927403.jpg
 
http://www.shotpix.com/images/89148865704884142704.jpg
 
http://www.shotpix.com/images/50462764185328442288.jpg


Note:-- Check The Torrent


SAMPLE VIDEO IS AVAILABLE
          or 
TAMIL AUDIO IS SEPARATED SOURCE IS ORG DVD

.............................COMMENT MY WORK...................................
				